<svg xmlns="http://www.w3.org/2000/svg" viewBox="0 0 322.65 60.21"><defs><style>.cls-1{fill:#fff;}</style></defs><title>VCAsset 6</title><g id="Layer_2" data-name="Layer 2"><g id="Layer_1-2" data-name="Layer 1"><path class="cls-1" d="M22.59,37.71v7.47H15.12v7.56H7.65v7.47H0V52.65H7.47V45h7.47V37.53H22.5V30.15H14.94V22.68H7.47V15.21H0V7.56H7.65V15h7.47V22.5h7.47v7.56h7.56v7.65Z"/><path class="cls-1" d="M67.5,60.21V30.15H52.65V60.21H45V0h7.65V22.5H67.5V0h7.65V60.21Z"/><path class="cls-1" d="M90,60.21V0h7.65V60.21Z"/><path class="cls-1" d="M135,60.21v-15h-7.56V37.71h-7.29v22.5H112.5V0h22.59V7.47h7.47V30.15h-7.47V45h7.47V60.21Zm0-52.65H120.15v22.5H135Z"/><path class="cls-1" d="M157.5,60.21V0h22.59V7.65H165.15V22.5h14.94v7.65H165.15V52.56h14.94v7.65Z"/><path class="cls-1" d="M240,60.21V30.15H225.18V60.21h-7.65V0h7.65V22.5H240V0h7.65V60.21Z"/><path class="cls-1" d="M262.53,60.21V0h7.65V60.21Z"/><path class="cls-1" d="M315,60.21V30.15h-7.38v15H300v-15h-7.29V60.21H285V0h7.65V15h7.47v15h7.38V15H315V0h7.65V60.21Z"/></g></g></svg>